<svg id="Layer_1" data-name="Layer 1" xmlns="http://www.w3.org/2000/svg" viewBox="0 0 1920 1080"><defs><style>.cls-1{fill:#fff;}</style></defs><rect class="cls-1" x="496.96" y="515.92" width="111.21" height="111.21" rx="27.47"/><rect class="cls-1" x="496.96" y="376.75" width="111.21" height="111.21" rx="27.47"/><rect class="cls-1" x="496.96" y="655.09" width="111.21" height="111.21" rx="27.47"/><rect class="cls-1" x="357.79" y="515.92" width="111.21" height="111.21" rx="27.47"/><rect class="cls-1" x="357.79" y="655.09" width="111.21" height="111.21" rx="27.47"/><rect class="cls-1" x="218.62" y="655.09" width="111.21" height="111.21" rx="27.47"/><path class="cls-1" d="M796.57,397.83a39.09,39.09,0,0,1,18.69-18q12.24-5.62,33.59-5.62V408q-23.61,1.41-36.82,6.32t-19.68,16q-6.47,11.1-7.31,31.62V521.8H745.13v-145h38.79L785,432.41h1.69Q790.11,410.2,796.57,397.83Z"/><path class="cls-1" d="M863.88,489.75q-10.53-17.7-10.54-41,0-22.77,10.54-40.2a71.22,71.22,0,0,1,28.68-26.84,89.57,89.57,0,0,1,80,0,71.44,71.44,0,0,1,28.54,26.84q10.53,17.43,10.53,40.2,0,23.32-10.4,41a69.73,69.73,0,0,1-28.53,27.13,90,90,0,0,1-80.11,0A70.72,70.72,0,0,1,863.88,489.75Zm107.25-41q0-22.48-10.27-34.29t-28.24-11.81q-18.29,0-28.54,11.81t-10.26,34.29q0,23.06,10.26,35.14t28.54,12.09q18,0,28.24-12.09T971.13,448.71Z"/><path class="cls-1" d="M1181.1,408.51q7.86,17.43,7.87,40.76T1181.1,490q-7.87,17.43-21.79,26.85t-31.91,9.41a51.43,51.43,0,0,1-32.89-11.38q-14.33-11.38-20.52-33.59h-1.68l-1.13,40.48h-38.79V325h39.92v92.49H1074q6.19-22.49,20.52-33.88a51.43,51.43,0,0,1,32.89-11.38,55.57,55.57,0,0,1,31.91,9.42Q1173.23,391.08,1181.1,408.51Zm-32.33,40.76q0-23.06-10.4-36.12t-27.83-13.07q-17.14,0-27.69,11.52t-10.54,29.24V458q0,17.43,10.54,28.95t27.69,11.52q17.43,0,27.83-13.07T1148.77,449.27Z"/><path class="cls-1" d="M1214.11,489.75q-10.53-17.7-10.54-41,0-22.77,10.54-40.2a71.22,71.22,0,0,1,28.68-26.84,89.57,89.57,0,0,1,80,0,71.47,71.47,0,0,1,28.53,26.84q10.55,17.43,10.54,40.2,0,23.32-10.4,41a69.73,69.73,0,0,1-28.53,27.13,90,90,0,0,1-80.11,0A70.72,70.72,0,0,1,1214.11,489.75Zm107.24-41q0-22.48-10.26-34.29t-28.25-11.81q-18.27,0-28.53,11.81t-10.26,34.29q0,23.06,10.26,35.14t28.53,12.09q18,0,28.25-12.09T1321.35,448.71Z"/><path class="cls-1" d="M1428.44,401.49v73.08q0,10.68,4.22,14.2t16.87,3.51q9.27,0,19.67-.84v30.64q-22.76,1.68-30.64,1.4-26.41,0-38.23-9.13t-11.8-33V401.49h-22.77V376.75h22.77V338.8h38l1.12,37.95h41.88v24.74Z"/><path class="cls-1" d="M1489.15,334.3A23.53,23.53,0,0,1,1512.48,311a23,23,0,0,1,16.73,6.75,22.29,22.29,0,0,1,6.89,16.58,22,22,0,0,1-6.89,16.3,23,23,0,0,1-16.73,6.75A22.66,22.66,0,0,1,1496,350.6,22,22,0,0,1,1489.15,334.3Zm3.66,42.45h39.91v145h-39.91Z"/><path class="cls-1" d="M1590.91,381.38q17.14-9.13,38.79-9.13,20.8,0,36.68,7.73a59.92,59.92,0,0,1,25,22.21q9.13,14.47,10,33.87h-39.64q-.27-16.31-9-24.88t-23-8.57q-16.31,0-25.44,11.95t-9.14,33q0,23.61,9.14,36t25.44,12.37q15.18,0,23.33-8.86t8.71-25.44h39.64q-.56,20.81-10.26,35.28a61.38,61.38,0,0,1-25.86,21.92,83.89,83.89,0,0,1-35.56,7.45q-21.36,0-38.37-8.57t-27-26.14q-10-17.56-10-43.43,0-23.34,9.7-40.48A66,66,0,0,1,1590.91,381.38Z"/><path class="cls-1" d="M807.81,643.94V717q0,10.68,4.22,14.19t16.87,3.52q9.27,0,19.67-.85v30.64q-22.76,1.69-30.64,1.41-26.41,0-38.22-9.14t-11.81-33V643.94H745.13V619.2H767.9v-38h38l1.12,38h41.88v24.74Z"/><path class="cls-1" d="M920,640.28a39.09,39.09,0,0,1,18.69-18q12.23-5.61,33.59-5.62v33.74q-23.61,1.4-36.82,6.32t-19.68,16q-6.46,11.12-7.31,31.63v59.87H868.52v-145h38.79l1.13,55.66h1.69Q913.49,652.66,920,640.28Z"/><path class="cls-1" d="M1037.74,686.67q27,.27,37.67-4.5t10.68-15.74q0-8.71-7.31-15.18t-23-6.47q-16.31,0-25.3,8.72T1020,676.83H980.39a65.21,65.21,0,0,1,9.42-31.2q8.58-14.05,25.16-22.49t40.48-8.43q35.15,0,52.57,15.88t17.43,40.9v92.76h-38.23L1086.09,719h-1.4q-2.82,23.89-18,36.83t-38.51,12.93q-21.91,0-35.55-10.26T979,728.55q0-19.68,14.62-30.92T1037.74,686.67Zm4.22,55.94a44.36,44.36,0,0,0,21.92-5.63,45,45,0,0,0,16.17-14.89,35.46,35.46,0,0,0,6-19.68V680.2h-1.4q-1.41,9.28-5.77,14.9t-13.77,8.71q-9.42,3.11-26.29,4.22-9,.57-14.19,5.06t-5.2,12.09q0,8.15,5.76,12.79T1042,742.61Z"/><path class="cls-1" d="M1301.41,567.48V764.25h-38.52l-1.4-40.2h-1.41q-6.18,22.22-20.66,33.6a52,52,0,0,1-33,11.38,55.73,55.73,0,0,1-31.76-9.42q-14.06-9.4-21.93-26.84t-7.87-40.48q0-23.32,7.87-40.9t21.93-27a55.81,55.81,0,0,1,31.76-9.42,51.6,51.6,0,0,1,33,11.53q14.47,11.52,20.66,33.73h1.41V567.48Zm-39.92,133.24V683.58q0-17.72-10.4-29.24t-27.55-11.53q-17.43,0-28,13.08T1185,692.29q0,22.77,10.54,35.84t28,13.07q17.14,0,27.55-11.38T1261.49,700.72Z"/><path class="cls-1" d="M1360.43,699.88q.27,18,11.24,28.39t28.11,10.4q13.48,0,22.91-6.89a31.17,31.17,0,0,0,12.23-17.85h34.86q-2.27,17.72-12.94,30.08A67.23,67.23,0,0,1,1431,762.57a82,82,0,0,1-31.2,6.18q-36,0-56.78-20.24t-20.81-57.34q0-22.78,9.28-40.2a65.12,65.12,0,0,1,26.14-26.85q16.88-9.42,39.64-9.41,22.49,0,39.35,9.83a66.1,66.1,0,0,1,25.72,26.57,78.25,78.25,0,0,1,8.86,37.24v11.53Zm0-21.65h71.4q-1.12-15.74-10.83-24.59t-24.59-8.86q-15.18,0-25,8.72T1360.43,678.23Z"/><path class="cls-1" d="M1544.25,640.28a39.14,39.14,0,0,1,18.69-18q12.24-5.61,33.6-5.62v33.74q-23.62,1.4-36.83,6.32t-19.67,16q-6.46,11.12-7.31,31.63v59.87h-39.92v-145h38.79l1.13,55.66h1.68Q1537.79,652.66,1544.25,640.28Z"/></svg>